<svg xmlns="http://www.w3.org/2000/svg" viewBox="0 0 3000 3000" width="600" height="600">
	<style>
		tspan { white-space:pre }
		.shp0 { opacity: 0.4;fill: #f2b5d4;stroke: #2bc6db } 
	</style>
	<g id="Page 1">
		<path id="Path 1" class="shp0" d="M49.32,1397.33c0,0 170.25,465.03 563.21,649.97c392.96,184.94 859.81,19.76 859.81,19.76c0,0 -170.25,-465.03 -563.21,-649.97c-392.96,-184.94 -859.81,-19.76 -859.81,-19.76z" />
		<path id="Path 2" class="shp0" d="M2045.04,1427.26c-395.38,179.7 -571.8,642.43 -571.8,642.43c0,0 464.62,171.38 860,-8.32c395.38,-179.7 571.8,-642.43 571.8,-642.43c0,0 -464.62,-171.38 -860,8.32z" />
		<path id="Path 3" class="shp0" d="M1763.12,1263.04c-301.19,312.9 -294.44,808.07 -294.44,808.07c0,0 495.07,-12.13 796.26,-325.03c301.19,-312.9 294.44,-808.07 294.44,-808.07c0,0 -495.07,12.14 -796.26,325.03z" />
		<path id="Path 4" class="shp0" d="M360.4,958.56c0,0 3.02,495.21 310.33,802.1c307.3,306.89 802.51,309.26 802.51,309.26c0,0 -3.02,-495.21 -310.33,-802.1c-307.3,-306.89 -802.51,-309.26 -802.51,-309.26z" />
		<path id="Path 5" class="shp0" d="M837.38,623.25c0,0 -180.14,461.29 -7.95,860c172.19,398.71 631.5,583.85 631.5,583.85c0,0 180.13,-461.29 7.95,-860c-172.19,-398.71 -631.49,-583.85 -631.49,-583.85z" />
		<path id="Path 6" class="shp0" d="M1470.01,1211.09c-173.27,398.24 5.61,860.02 5.61,860.02c0,0 459.81,-183.89 633.08,-582.13c173.27,-398.24 -5.61,-860.02 -5.61,-860.02c0,0 -459.81,183.89 -633.08,582.13z" />
		<path id="Path 7" class="shp0" d="M1468.67,498.36c0,0 -348.26,352.07 -348.26,786.37c0,434.3 348.26,786.37 348.26,786.37c0,0 348.26,-352.07 348.26,-786.37c0,-434.3 -348.26,-786.37 -348.26,-786.37z" />
	</g>
</svg>